<svg width="73" height="73" viewBox="0 0 73 73" fill="none" xmlns="http://www.w3.org/2000/svg">
<path fill-rule="evenodd" clip-rule="evenodd" d="M19.6809 6.0885L19.7619 6.09373C21.3554 6.2258 22.7394 7.0177 24.0028 8.25211C26.4037 10.597 31.5593 17.4398 31.9486 19.302C32.3793 21.3795 31.9187 22.7288 30.5457 25.1157L30.2129 25.7039C29.5828 26.8547 29.4865 27.3299 29.6815 27.874C32.6795 35.2112 37.7954 40.3264 45.0488 43.2888C45.7357 43.5376 46.2544 43.3951 47.706 42.5623L48.4635 42.1338C50.5044 41.0144 51.7979 40.6606 53.7052 41.0579C55.561 41.4467 62.4077 46.6056 64.749 49.0035C65.9818 50.2656 66.7754 51.6521 66.9136 53.3506C67.0593 57.4788 62.022 63.2914 58.9491 65.0392C55.4546 67.5388 51.02 67.4974 46.0477 65.1832C33.0449 59.7725 13.1552 40.0098 7.85476 27.0231L7.53746 26.2966C5.52481 21.4862 5.56842 17.3303 7.87483 14.1971C9.97935 10.7119 15.6535 5.90224 19.6809 6.0885ZM19.4351 10.5361L19.1669 10.5499C17.0998 10.8245 12.9545 14.3933 11.5741 16.6632L11.3356 17.0181C10.1463 18.9557 10.2842 21.6166 11.9399 25.26L12.2563 26.0007C17.596 37.9849 36.0842 56.2165 47.8404 61.1105L48.4879 61.3985C51.8893 62.8402 54.4641 62.7762 56.5487 61.298L56.7028 61.1989C57.3479 60.7507 58.8354 59.3991 59.9811 58.077C61.5904 56.22 62.5019 54.5186 62.4725 53.6129C62.4404 53.2254 62.1414 52.7031 61.5655 52.1134C59.825 50.3309 53.4949 45.5613 52.7953 45.4147C52.1338 45.2769 51.5908 45.4621 50.106 46.3162L49.359 46.7358C47.1715 47.9156 45.6293 48.2326 43.4505 47.4417C35.0069 43.9954 29.0124 38.0018 25.5296 29.4731C24.7046 27.1927 25.1487 25.5793 26.5833 23.079L26.9251 22.4776C27.5768 21.3009 27.7147 20.8016 27.5919 20.2094C27.4449 19.5059 22.6783 13.1795 20.8934 11.4362C20.3024 10.8587 19.7831 10.5616 19.3944 10.5294L19.4351 10.5361Z" fill="url(#paint0_linear)"/>
<defs>
<linearGradient id="paint0_linear" x1="6.08334" y1="6.08325" x2="61.8472" y2="66.9166" gradientUnits="userSpaceOnUse">
<stop stop-color="#F4A58A"/>
<stop offset="1" stop-color="#ED6B4E"/>
</linearGradient>
</defs>
</svg>
